<svg xmlns="http://www.w3.org/2000/svg" width="37" height="47" viewBox="0 0 37 47" fill="none">
  <path d="M23.4021 27.6978C23.4146 27.7822 23.4368 27.8326 23.4285 27.8775C23.1787 29.2356 23.8448 30.0984 25.027 30.6468C25.8235 31.017 26.6408 31.3463 27.4581 31.6702C29.8559 32.6215 32.2162 33.6462 34.2643 35.233C35.509 36.1965 36.6177 37.311 36.8772 38.9128C37.034 39.8871 37.0326 40.9132 36.9188 41.8944C36.7953 42.96 36.0585 43.7248 35.1773 44.3276C33.7106 45.3306 32.0316 45.8055 30.311 46.1512C26.7768 46.8616 23.1926 46.9841 19.6001 46.9963C16.2004 47.0086 12.8008 47.0167 9.42336 46.5622C7.35999 46.2846 5.31882 45.9076 3.41364 45.0339C1.95804 44.3657 0.692541 43.4608 0.237406 41.8645C-0.324574 39.8899 0.113909 38.0935 1.52372 36.5584C2.67682 35.3024 4.10328 34.3851 5.60744 33.6081C7.58062 32.5888 9.60652 31.6675 11.6075 30.7013C11.9793 30.5216 12.3679 30.3624 12.7106 30.1379C13.811 29.4193 14.144 28.2041 13.5251 27.0541C13.2532 26.5479 12.884 26.0866 12.526 25.6293C10.6264 23.2029 9.25962 20.541 8.81698 17.4859C8.44371 14.9057 8.52003 12.354 9.69672 9.94938C11.1912 6.8915 13.7236 5.24213 17.1204 4.81482C19.1533 4.55897 21.1459 4.72364 23.0261 5.56057C26.0927 6.92553 27.7148 9.38189 28.3184 12.5432C28.9428 15.8161 28.3392 18.9311 26.9322 21.9196C26.8531 22.0883 26.6408 22.2544 26.4562 22.3101C25.9942 22.449 25.5168 22.5442 25.0381 22.615C24.8549 22.6422 24.6496 22.566 24.4608 22.517C23.8989 22.3727 23.348 22.155 22.7791 22.087C22.1463 22.0121 21.4969 22.057 20.8558 22.0761C19.274 22.1237 18.0237 23.3961 18.0459 24.9189C18.0681 26.4349 19.299 27.657 20.8642 27.6937C21.6967 27.7142 22.5279 27.6978 23.4021 27.6978Z" fill="#0DCCFD"/>
  <path d="M2.00383 18.8046C2.00383 18.0057 1.99689 17.2055 2.00522 16.4067C2.01632 15.5126 2.39791 14.8118 3.14444 14.2837C3.29569 14.1762 3.43029 13.9476 3.44416 13.7666C3.95619 6.735 9.54408 0.95131 16.6542 0.110293C24.8591 -0.861367 32.3133 4.69098 33.5094 12.6643C33.5247 12.765 33.5302 12.8671 33.5372 12.9691C33.5816 13.6251 33.6565 14.2143 34.3267 14.6471C34.8943 15.0145 35.0705 15.6963 35.0746 16.3686C35.0844 17.9839 35.0996 19.6007 35.0733 21.216C35.0427 23.0641 33.2055 24.1963 31.4516 23.4914C31.2795 23.422 31.002 23.3988 30.8633 23.4887C28.9636 24.7162 26.8461 25.285 24.6176 25.5477C24.4234 25.5708 24.2472 25.7355 24.0584 25.8239C23.6658 26.0063 23.2828 26.2812 22.8707 26.3383C22.2421 26.4254 21.5899 26.3723 20.9488 26.3587C20.1024 26.3397 19.4835 25.7559 19.4488 24.9679C19.4141 24.1677 19.9553 23.5132 20.8045 23.4492C21.5455 23.392 22.2948 23.4138 23.0386 23.4451C23.2842 23.456 23.5964 23.5417 23.749 23.7078C24.1042 24.0956 24.5011 24.0861 24.959 24.0167C26.6519 23.7595 28.2684 23.2954 29.7407 22.4081C30.0127 22.2448 30.089 22.1019 30.0307 21.7631C29.9377 21.216 29.9683 20.6458 29.9655 20.0851C29.9585 18.878 29.9696 17.6696 29.9613 16.4625C29.9558 15.5425 30.3235 14.8267 31.0908 14.2878C31.2213 14.1966 31.3212 13.9599 31.3115 13.7966C30.9632 8.33266 26.4881 3.43898 20.9807 2.47957C13.983 1.25615 7.55564 5.43401 6.00152 12.2098C5.94463 12.4575 5.90439 12.7106 5.85582 12.961C5.72678 13.6183 5.66017 14.1953 6.3956 14.658C6.92567 14.9914 7.113 15.6405 7.11438 16.2842C7.11716 17.9513 7.13658 19.6184 7.11022 21.2841C7.08802 22.6599 6.00152 23.6778 4.6042 23.6942C3.18884 23.7105 2.06211 22.6871 2.01215 21.3045C1.98302 20.4716 2.0066 19.6374 2.0066 18.8046C2.0066 18.8046 2.00522 18.8046 2.00383 18.8046Z" fill="#0DCCFD"/>
</svg>